<?xml version="1.0" standalone="no"?>
<!DOCTYPE svg PUBLIC "-//W3C//DTD SVG 20010904//EN"
 "http://www.w3.org/TR/2001/REC-SVG-20010904/DTD/svg10.dtd">
<svg version="1.0" xmlns="http://www.w3.org/2000/svg"
 width="64.000000pt" height="64.000000pt" viewBox="0 0 64.000000 64.000000"
 preserveAspectRatio="xMidYMid meet">

<g transform="translate(0.000000,64.000000) scale(0.100000,-0.100000)"
fill="#000000" stroke="none">
<path d="M225 508 c-19 -18 -28 -38 -36 -87 -5 -35 -24 -91 -41 -124 l-30 -61
22 -18 c19 -16 43 -18 180 -18 137 0 161 2 180 18 l22 18 -30 61 c-17 33 -36
89 -41 124 -14 89 -38 109 -131 109 -57 0 -73 -4 -95 -22z m179 -30 c7 -13 16
-47 19 -76 4 -30 19 -77 35 -107 16 -30 27 -57 24 -60 -7 -7 -317 -7 -324 1
-3 3 7 31 23 62 16 31 32 80 35 107 11 84 23 95 104 95 61 0 71 -3 84 -22z"/>
<path d="M250 162 c0 -29 33 -52 72 -52 37 0 68 24 68 53 0 23 -17 21 -30 -3
-7 -13 -21 -20 -40 -20 -19 0 -33 7 -40 20 -13 25 -30 26 -30 2z"/>
</g>
</svg>
