<?xml version="1.0" standalone="no"?>
<!DOCTYPE svg PUBLIC "-//W3C//DTD SVG 20010904//EN"
 "http://www.w3.org/TR/2001/REC-SVG-20010904/DTD/svg10.dtd">
<svg version="1.0" xmlns="http://www.w3.org/2000/svg"
 width="24.000000pt" height="24.000000pt" viewBox="0 0 24.000000 24.000000"
 preserveAspectRatio="xMidYMid meet">

<g transform="translate(0.000000,24.000000) scale(0.100000,-0.100000)"
fill="#000000" stroke="none">
<path d="M22 218 c-16 -16 -16 -140 0 -156 7 -7 23 -12 36 -12 19 0 22 -3 13
-13 -16 -20 -3 -27 49 -27 52 0 65 7 49 27 -9 10 -6 13 14 13 29 0 52 23 43
45 -4 12 -24 15 -91 15 -50 0 -85 -4 -85 -10 0 -6 33 -10 80 -10 47 0 80 -4
80 -10 0 -6 -37 -10 -90 -10 l-90 0 0 70 0 70 90 0 90 0 0 -40 c0 -22 5 -40
10 -40 14 0 12 74 -2 88 -16 16 -180 16 -196 0z m128 -178 c0 -5 -13 -10 -30
-10 -16 0 -30 5 -30 10 0 6 14 10 30 10 17 0 30 -4 30 -10z"/>
<path d="M153 186 c9 -24 -18 -39 -43 -26 -18 9 -25 8 -41 -6 -10 -9 -19 -22
-19 -27 0 -6 9 -2 20 8 16 15 25 16 44 7 20 -9 27 -7 42 9 9 10 24 19 32 19
12 0 12 3 2 15 -16 19 -44 20 -37 1z"/>
</g>
</svg>
