<?xml version="1.0" standalone="no"?>
<!DOCTYPE svg PUBLIC "-//W3C//DTD SVG 20010904//EN"
 "http://www.w3.org/TR/2001/REC-SVG-20010904/DTD/svg10.dtd">
<svg version="1.0" xmlns="http://www.w3.org/2000/svg"
 width="48.000000pt" height="48.000000pt" viewBox="0 0 48.000000 48.000000"
 preserveAspectRatio="xMidYMid meet">

<g transform="translate(0.000000,48.000000) scale(0.100000,-0.100000)"
fill="#000000" stroke="none">
<path d="M200 400 c-11 -11 -20 -29 -20 -40 0 -26 34 -60 60 -60 26 0 60 34
60 60 0 11 -9 29 -20 40 -11 11 -29 20 -40 20 -11 0 -29 -9 -40 -20z m65 -40
c0 -18 -6 -26 -23 -28 -13 -2 -25 3 -28 12 -10 26 4 48 28 44 17 -2 23 -10 23
-28z"/>
<path d="M76 384 c-20 -20 -20 -48 0 -68 30 -31 84 -9 84 34 0 24 -26 50 -50
50 -10 0 -26 -7 -34 -16z m50 -25 c10 -17 -13 -36 -27 -22 -12 12 -4 33 11 33
5 0 12 -5 16 -11z"/>
<path d="M336 384 c-31 -30 -9 -84 34 -84 24 0 50 26 50 50 0 24 -26 50 -50
50 -10 0 -26 -7 -34 -16z m50 -25 c10 -17 -13 -36 -27 -22 -12 12 -4 33 11 33
5 0 12 -5 16 -11z"/>
<path d="M52 268 c-7 -7 -12 -36 -12 -65 0 -44 5 -59 25 -78 24 -25 75 -34 75
-15 0 6 -12 15 -27 21 -36 13 -43 25 -43 77 0 40 2 42 29 42 16 0 31 6 35 15
4 12 -3 15 -32 15 -21 0 -43 -5 -50 -12z"/>
<path d="M162 268 c-7 -7 -12 -41 -12 -81 0 -62 3 -71 29 -98 40 -39 82 -39
122 0 26 27 29 36 29 98 0 40 -5 74 -12 81 -16 16 -140 16 -156 0z m138 -78
c0 -65 -21 -100 -60 -100 -39 0 -60 35 -60 100 l0 60 60 0 60 0 0 -60z"/>
<path d="M346 265 c4 -9 19 -15 35 -15 27 0 29 -2 29 -42 0 -52 -7 -64 -43
-77 -15 -6 -27 -15 -27 -21 0 -19 51 -10 75 15 20 19 25 34 25 78 0 63 -11 77
-62 77 -29 0 -36 -3 -32 -15z"/>
</g>
</svg>
